<?xml version="1.0" encoding="UTF-8"?>
<svg version="1.1" xmlns="http://www.w3.org/2000/svg" width="438" height="362">
<path d="M0 0 C144.54 0 289.08 0 438 0 C438 119.46 438 238.92 438 362 C293.46 362 148.92 362 0 362 C0 242.54 0 123.08 0 0 Z " fill="#FEFDFD" transform="translate(0,0)"/>
<path d="M0 0 C4.43336274 0.74622792 6.71209493 1.84124341 10 5 C11.73046875 7.69921875 11.73046875 7.69921875 13.1875 10.6875 C13.92033203 12.14736328 13.92033203 12.14736328 14.66796875 13.63671875 C21.47353079 30.82026395 21.62853433 56.30808133 14.5970459 73.44287109 C10.88269144 81.77788463 6.71792414 90.97334577 -2.15405273 94.62695312 C-5.09104619 95.46224818 -7.95926726 95.80201617 -11 96 C-12.34036106 96.30384391 -13.67863584 96.62199782 -15 97 C-13.56215043 92.28387157 -11.60982084 87.96925952 -9.375 83.58984375 C-9.02743652 82.89991837 -8.67987305 82.20999298 -8.32177734 81.49916077 C-7.2183405 79.30998505 -6.10956135 77.12357708 -5 74.9375 C-3.89114395 72.74750931 -2.78349822 70.55692759 -1.67822266 68.36512756 C-0.99264177 67.00611325 -0.3049254 65.64817343 0.38525391 64.29148865 C3.2835074 58.55531542 5.25568748 54.34503991 5.23046875 47.859375 C5.22853516 46.70695312 5.22660156 45.55453125 5.22460938 44.3671875 C5.21236328 43.17351562 5.20011719 41.97984375 5.1875 40.75 C5.18685547 39.54085937 5.18621094 38.33171875 5.18554688 37.0859375 C5.68315275 31.67720898 5.68315275 31.67720898 4 27 C0.27595934 34.42454894 -3.4457011 41.8502847 -7.16460896 49.27740574 C-8.89290791 52.72886178 -10.62192073 56.17995567 -12.3527832 59.63012695 C-19.92200987 74.71937246 -27.41343782 89.83432142 -34.65649414 105.08374023 C-37.71219874 111.51289085 -40.86958685 117.8879718 -44.0625 124.25 C-44.61615234 125.36117187 -45.16980469 126.47234375 -45.74023438 127.6171875 C-49.74603175 135.61904762 -49.74603175 135.61904762 -52 139 C-46.72 139 -41.44 139 -36 139 C-35.01 136.03 -35.01 136.03 -34 133 C-28.12721383 119.81780933 -21.55044712 108.24174139 -8 102 C0.0311059 99.01228924 8.20594496 96.91198753 16.5625 95.0625 C32.2103494 91.57544921 49.61314285 85.55377394 58.640625 71.59375 C60.92405472 67.23686111 61.91005015 62.7836688 63 58 C57.39 58 51.78 58 46 58 C46 50.41 46 42.82 46 35 C42.04 35 38.08 35 34 35 C33.33477306 23.69114209 36.10930985 13.06578174 43 4 C45.625 1.375 45.625 1.375 48 0 C49.32 0 50.64 0 52 0 C55.54487382 7.06443491 59.08663698 14.13042282 62.6262207 21.19750977 C63.83100502 23.6026072 65.03678471 26.00720171 66.2434082 28.41137695 C67.97534904 31.8631571 69.70472425 35.31621198 71.43359375 38.76953125 C71.97527695 39.84773636 72.51696014 40.92594147 73.07505798 42.03681946 C73.57550125 43.03763046 74.07594452 44.03844147 74.59155273 45.06958008 C75.03345444 45.95116287 75.47535614 46.83274567 75.9306488 47.74104309 C79.38105457 55.02987203 78.1191499 63.03366414 75.98046875 70.61328125 C70.26201572 85.42852411 59.54999033 95.33194147 45.15234375 101.83447266 C33.49707332 106.79753571 21.12480608 110.11517759 8.80859375 112.98828125 C-0.11934957 115.10884487 -7.32615979 117.38359831 -12.3515625 125.48828125 C-15.48069424 130.63651272 -18.10483962 136.02953734 -20.75 141.4375 C-21.72222427 143.41621754 -22.69609124 145.39412911 -23.671875 147.37109375 C-24.0956543 148.23661865 -24.51943359 149.10214355 -24.95605469 149.99389648 C-26 152 -26 152 -27 153 C-28.50418739 153.09311889 -30.01271356 153.11746028 -31.51977539 153.11352539 C-32.96115623 153.11341209 -32.96115623 153.11341209 -34.43165588 153.11329651 C-35.476436 153.10813522 -36.52121613 153.10297394 -37.59765625 153.09765625 C-39.19364906 153.09553383 -39.19364906 153.09553383 -40.82188416 153.09336853 C-44.23545083 153.08775064 -47.648953 153.07519511 -51.0625 153.0625 C-53.37044176 153.05748731 -55.67838455 153.052924 -57.98632812 153.04882812 C-63.65757426 153.0377754 -69.32878253 153.02101987 -75 153 C-73.49806217 148.03501426 -71.42445124 143.58222826 -69.09204102 138.97290039 C-68.50363182 137.79805336 -68.50363182 137.79805336 -67.90333557 136.59947205 C-66.60719626 134.01367348 -65.30548956 131.43071818 -64.00390625 128.84765625 C-63.09105486 127.02823675 -62.17862216 125.20860713 -61.2665863 123.38877869 C-58.85919272 118.58729258 -56.44737428 113.78804434 -54.03424072 108.98944092 C-49.74821658 100.46556218 -45.46818751 91.93867578 -41.19140625 83.41015625 C-40.73529654 82.500931 -40.27918682 81.59170574 -39.8092556 80.65492821 C-33.39825772 67.86921268 -27.09611706 55.04296732 -21.00141907 42.1028595 C-18.47864656 36.80534091 -15.81999289 31.57427884 -13.17626953 26.33642578 C-10.60558448 21.23027054 -8.05526141 16.1138855 -5.5 11 C-4.4479793 8.89580202 -3.39590112 6.79163277 -2.34375 4.6875 C-1.66602539 3.33205078 -1.66602539 3.33205078 -0.97460938 1.94921875 C-0.65298828 1.30597656 -0.33136719 0.66273437 0 0 Z " fill="#2D0755" transform="translate(192,72)"/>
<path d="M0 0 C3.31807007 2.74546014 4.8855596 6.42224853 6.71875 10.21875 C7.06780396 10.92946655 7.41685791 11.64018311 7.77648926 12.37243652 C8.85762543 14.5784613 9.92976212 16.78867052 11 19 C11.63011192 20.29561981 12.26031616 21.59119473 12.890625 22.88671875 C14.44279447 26.08374769 15.98705761 29.28454118 17.5295105 32.48626709 C24.23548865 46.40094506 31.07684191 60.24299969 38.03515625 74.03320312 C38.36161636 74.68189362 38.68807648 75.33058411 39.02442932 75.99893188 C39.90517873 77.74865517 40.7883183 79.49717474 41.67163086 81.24560547 C43 84 43 84 44 87 C27.83 87 11.66 87 -5 87 C-6.588125 83.638125 -8.17625 80.27625 -9.8125 76.8125 C-14.14406098 67.6785419 -18.69003086 58.68997491 -23.55786133 49.8293457 C-25.87224747 45.53534275 -27.59836159 41.95621803 -28 37 C-26.3790787 35.82767315 -24.75313167 34.6622923 -23.125 33.5 C-21.76761719 32.52546875 -21.76761719 32.52546875 -20.3828125 31.53125 C-18 30 -18 30 -16 30 C-13.14611007 35.65719444 -10.29841902 41.31747674 -7.45507812 46.97998047 C-6.48646254 48.90713544 -5.51641418 50.83357095 -4.54492188 52.75927734 C-3.15119859 55.52254709 -1.76259769 58.28833774 -0.375 61.0546875 C0.06247559 61.9193161 0.49995117 62.7839447 0.95068359 63.67477417 C1.35109863 64.47545319 1.75151367 65.2761322 2.1640625 66.10107422 C2.51936035 66.8072287 2.8746582 67.51338318 3.24072266 68.24093628 C4 70 4 70 4 72 C9.28 72 14.56 72 20 72 C19.207146 70.45618652 18.41429199 68.91237305 17.59741211 67.32177734 C14.97773331 62.21156895 12.37298155 57.09390826 9.77825069 51.97099876 C8.2049355 48.86606768 6.62582595 45.76438606 5.03295898 42.66943359 C3.20075977 39.10881478 1.3947644 35.53546245 -0.41015625 31.9609375 C-0.9840358 30.85446869 -1.55791534 29.74799988 -2.14918518 28.60800171 C-2.66980026 27.56737579 -3.19041534 26.52674988 -3.72680664 25.45458984 C-4.42296837 24.08891373 -4.42296837 24.08891373 -5.13319397 22.69564819 C-6.92672132 17.11802345 -4.38058517 11.90620584 -2.4375 6.625 C-2.20353516 5.98433594 -1.96957031 5.34367188 -1.72851562 4.68359375 C-1.15700381 3.1206839 -0.57915771 1.56009273 0 0 Z " fill="#C09C5A" transform="translate(276,139)"/>
<path d="M0 0 C7.02365955 3.74677613 10.71483764 8.73551547 13.21875 16.18359375 C14.62392126 24.13867621 12.81161438 30.6058734 8.21875 37.18359375 C3.62852948 42.24351125 -1.694516 45.83182016 -8.5859375 46.6171875 C-9.94250066 46.64096079 -11.29963399 46.64163152 -12.65625 46.62109375 C-13.36515381 46.61207031 -14.07405762 46.60304688 -14.80444336 46.59375 C-22.90484751 46.32525922 -27.13629785 44.17809345 -32.59375 38.37109375 C-37.55892279 32.2043038 -39.3638464 26.78301172 -39.13671875 18.8984375 C-38.31475424 12.62079646 -34.92081933 7.83603008 -30.78125 3.18359375 C-20.69779189 -3.72350014 -11.14155965 -5.09479547 0 0 Z " fill="#300B58" transform="translate(244.78125,259.81640625)"/>
<path d="M0 0 C4.29 -0.0825 8.58 -0.165 13 -0.25 C14.33675781 -0.28641602 15.67351562 -0.32283203 17.05078125 -0.36035156 C24.20868945 -0.42678724 28.97368073 0.02988648 35 4 C38.71341212 7.64717446 41.13825118 10.86085148 41.3125 16.125 C41.25000552 20.96051027 40.14958157 25.23674638 37 29 C34.35546875 30.22265625 34.35546875 30.22265625 32 31 C32.63808594 31.97582031 33.27617187 32.95164062 33.93359375 33.95703125 C34.76840295 35.24207462 35.60302882 36.5272371 36.4375 37.8125 C36.85837891 38.45509766 37.27925781 39.09769531 37.71289062 39.75976562 C39.47722704 42.48390104 40.9691739 44.90752171 42 48 C37.81575033 48.69040119 34.15718991 48.93904778 30 48 C26.02227091 44.27889859 23.42187953 39.84375907 21 35 C18.64400765 34.53248212 18.64400765 34.53248212 15.9375 34.375 C14.308125 34.25125 12.67875 34.1275 11 34 C11 38.62 11 43.24 11 48 C7.37 48 3.74 48 0 48 C0 32.16 0 16.32 0 0 Z " fill="#2F0A57" transform="translate(266,258)"/>
<path d="M0 0 C0.66 0 1.32 0 2 0 C2.14695313 1.59714844 2.14695313 1.59714844 2.296875 3.2265625 C3.59318396 16.2363795 5.12391325 30.72640172 14 41 C18.81973798 44.76787334 24.069411 47.43931869 30 49 C27.82838674 50.09343525 25.65236556 51.16237137 23.44921875 52.19140625 C14.56727688 56.60097004 9.43779501 61.91350898 5.6875 71.125 C3.43898808 77.90913683 2.72643507 84.91725811 2 92 C1.34 92 0.68 92 0 92 C-0.09796875 91.04480469 -0.1959375 90.08960937 -0.296875 89.10546875 C-1.68895253 77.06879839 -3.77835091 65.69669753 -13 57 C-17.95136703 53.79063532 -23.33930201 51.6386231 -29 50 C-26.31078256 48.20718837 -24.12468791 47.22822868 -21.125 46.125 C-12.20491922 42.56473554 -9.04658154 37.49850226 -5.08984375 29.05859375 C-1.30608214 19.95094646 -0.72821601 9.73509827 0 0 Z " fill="#C09D5B" transform="translate(217,12)"/>
<path d="M0 0 C12.21 0 24.42 0 37 0 C37 2.97 37 5.94 37 9 C28.75 9 20.5 9 12 9 C12 12.3 12 15.6 12 19 C19.26 19 26.52 19 34 19 C34 21.97 34 24.94 34 28 C26.74 28 19.48 28 12 28 C12 31.3 12 34.6 12 38 C20.58 38 29.16 38 38 38 C38 41.3 38 44.6 38 48 C32.74894558 48.02464928 27.49792455 48.04283568 22.24682617 48.05493164 C20.45905979 48.05997218 18.67129755 48.06680454 16.88354492 48.07543945 C14.31948832 48.0875173 11.75548603 48.09323094 9.19140625 48.09765625 C7.98515343 48.10539818 7.98515343 48.10539818 6.75453186 48.11329651 C4.83598285 48.11349215 2.91754632 48.06201983 1 48 C0 47 0 47 -0.12025452 45.09544373 C-0.11803391 44.26271439 -0.11581329 43.42998505 -0.11352539 42.57202148 C-0.11344986 41.63112167 -0.11337433 40.69022186 -0.11329651 39.72080994 C-0.10813522 38.69790359 -0.10297394 37.67499725 -0.09765625 36.62109375 C-0.0962413 35.57929459 -0.09482635 34.53749542 -0.09336853 33.46412659 C-0.0877508 30.12188906 -0.0751953 26.77971743 -0.0625 23.4375 C-0.05748728 21.17773534 -0.05292398 18.91796963 -0.04882812 16.65820312 C-0.03862456 11.10542266 -0.01905264 5.55278548 0 0 Z " fill="#310E59" transform="translate(367,258)"/>
<path d="M0 0 C2.625 2.25 2.625 2.25 4 4 C2.60667426 7.36720387 1.0210714 8.9859524 -2 11 C-6 9 -6 9 -7.8359375 7.953125 C-11.76366368 6.22322394 -15.80009726 6.46257169 -20 7 C-24.40617281 9.16303029 -27.1644597 11.41114924 -29 16 C-29.75335113 21.65013349 -29.31146295 26.20408814 -26 31 C-21.88888963 34.15036175 -18.79077806 34.33058256 -13.6875 34.1875 C-11.480625 34.125625 -9.27375 34.06375 -7 34 C-7 29.38 -7 24.76 -7 20 C-3.37 20 0.26 20 4 20 C4.1620754 23.08543534 4.28089252 26.16237825 4.375 29.25 C4.42527344 30.12269531 4.47554688 30.99539063 4.52734375 31.89453125 C4.58447043 34.38906295 4.54623721 36.5639856 4 39 C-2.66848379 45.25539187 -11.30616463 45.70112578 -20.0078125 45.4375 C-26.72326799 44.93091213 -31.45804415 41.81859581 -35.90234375 36.890625 C-41.66214224 29.46387306 -42.07919111 22.18379777 -41 13 C-39.89959283 9.68397481 -38.41115804 7.50248979 -36 5 C-35.46890625 4.43925781 -34.9378125 3.87851562 -34.390625 3.30078125 C-24.5897469 -5.98307805 -11.61983979 -6.38121072 0 0 Z " fill="#300B56" transform="translate(354,261)"/>
<path d="M0 0 C11.88 0 23.76 0 36 0 C36 2.97 36 5.94 36 9 C27.75 9 19.5 9 11 9 C11 12.96 11 16.92 11 21 C18.26 21 25.52 21 33 21 C33 23.97 33 26.94 33 30 C25.74 30 18.48 30 11 30 C11 35.61 11 41.22 11 47 C7.37 47 3.74 47 0 47 C0 31.49 0 15.98 0 0 Z " fill="#2B0554" transform="translate(166,258)"/>
<path d="M0 0 C0.928125 0.103125 1.85625 0.20625 2.8125 0.3125 C6.2659419 7.49748335 9.71478254 14.68465946 13.16113281 21.87304688 C14.71530609 25.11006538 16.27493404 28.34439616 17.8359375 31.578125 C18.74492017 33.46868822 19.65378081 35.35931012 20.5625 37.25 C20.99224121 38.13647217 21.42198242 39.02294434 21.86474609 39.9362793 C22.25484863 40.75008057 22.64495117 41.56388184 23.046875 42.40234375 C23.38944336 43.11253662 23.73201172 43.82272949 24.08496094 44.55444336 C24.8125 46.3125 24.8125 46.3125 24.8125 48.3125 C22.8325 48.3125 20.8525 48.3125 18.8125 48.3125 C16.8325 44.3525 14.8525 40.3925 12.8125 36.3125 C3.9025 35.9825 -5.0075 35.6525 -14.1875 35.3125 C-15.1775 38.2825 -16.1675 41.2525 -17.1875 44.3125 C-17.8475 45.6325 -18.5075 46.9525 -19.1875 48.3125 C-21.1675 48.3125 -23.1475 48.3125 -25.1875 48.3125 C-23.63244337 43.27463472 -21.58382086 38.58433745 -19.37890625 33.80859375 C-19.0115184 33.00768814 -18.64413055 32.20678253 -18.26560974 31.38160706 C-17.49134544 29.69584067 -16.71552365 28.01078886 -15.93823242 26.32641602 C-14.75312405 23.7567738 -13.57447622 21.1842392 -12.39648438 18.61132812 C-11.64101049 16.96857266 -10.88516364 15.32598866 -10.12890625 13.68359375 C-9.77880997 12.91889267 -9.42871368 12.15419159 -9.06800842 11.36631775 C-8.12908254 9.33740752 -7.1608721 7.32502925 -6.1875 5.3125 C-5.50868774 3.81601929 -5.50868774 3.81601929 -4.81616211 2.28930664 C-3.1875 0.3125 -3.1875 0.3125 0 0 Z " fill="#311254" transform="translate(56.1875,257.6875)"/>
<path d="M0 0 C3.2862394 6.47993675 6.56390781 12.96413073 9.83059788 19.45394707 C11.34760724 22.46706094 12.86756714 25.47860961 14.39428711 28.48681641 C16.14664168 31.94322392 17.88876895 35.40461653 19.62890625 38.8671875 C20.18091202 39.95055389 20.73291779 41.03392029 21.301651 42.15011597 C21.80224533 43.1510025 22.30283966 44.15188904 22.81860352 45.18310547 C23.26494644 46.06690887 23.71128937 46.95071228 24.17115784 47.86129761 C24.44467575 48.5670694 24.71819366 49.27284119 25 50 C24.505 50.99 24.505 50.99 24 52 C22.39065532 50.51081972 20.78192604 49.02096977 19.17602539 47.52807617 C17.79904915 46.25042711 16.41795719 44.9772006 15.03295898 43.70825195 C11.97179081 40.88220093 8.98715101 38.1018526 6.33984375 34.87890625 C2.08228358 29.84724423 -0.85095674 27.55215582 -7.39282227 26.9699707 C-10.61157466 26.83302499 -13.78079718 26.86420236 -17 27 C-16.96055858 18.08623886 -14.2445196 9.99539285 -8.41015625 3.12890625 C-5.41390023 0.43761267 -4.11828575 0 0 0 Z " fill="#BD9A5A" transform="translate(244,72)"/>
<path d="M0 0 C3.38261913 2.25507942 6.09172903 4.15755385 7.8125 7.875 C8.73236584 12.85472485 9.05790683 17.64916653 6.52734375 22.171875 C3.75574521 25.46783002 1.61447285 27.68617051 -2.796875 28.1484375 C-12.32098083 28.45643097 -12.32098083 28.45643097 -15.8125 25.625 C-20.1056349 20.65400169 -20.63342921 17.04646049 -20.50390625 10.5703125 C-19.92854009 5.66904525 -17.6141655 3.06388792 -13.9375 0 C-9.00359455 -2.01841587 -4.89347528 -1.72710892 0 0 Z " fill="#FAF9FB" transform="translate(238.1875,268.125)"/>
<path d="M0 0 C0.68473389 -0.0100708 1.36946777 -0.0201416 2.07495117 -0.03051758 C6.720695 0.04854698 10.03383211 0.91229626 13.9375 3.4375 C14.4325 4.9225 14.4325 4.9225 14.9375 6.4375 C14.6075 7.0975 14.2775 7.7575 13.9375 8.4375 C11.17473823 7.91481534 8.6114124 7.32880413 5.9375 6.4375 C3.79496746 6.29224356 1.64725167 6.21674747 -0.5 6.1875 C-1.63308594 6.16171875 -2.76617187 6.1359375 -3.93359375 6.109375 C-7.34511624 6.46713766 -8.71384527 6.96999768 -11.0625 9.4375 C-11.72916667 12.9375 -11.72916667 12.9375 -11.0625 16.4375 C-7.84163368 19.70631967 -4.12046992 20.35156333 0.25 21.375 C13.0056709 24.53975635 13.0056709 24.53975635 16.9375 30.4375 C17.53132093 34.55568669 17.33094293 38.33094177 15.9375 42.25 C12.07751996 46.47185317 8.31321679 48.16079887 2.6171875 48.82421875 C-4.39110723 49.04370098 -11.26783378 48.82411648 -17.0625 44.4375 C-18.359375 42.421875 -18.359375 42.421875 -19.0625 40.4375 C-18.7325 39.7775 -18.4025 39.1175 -18.0625 38.4375 C-15.48663172 38.93285928 -13.86276022 39.56553832 -11.625 41 C-6.25677589 43.16612552 -0.78052717 43.16746091 4.9375 42.4375 C7.8070026 41.27142683 7.8070026 41.27142683 9.9375 39.4375 C10.6875 35.9375 10.6875 35.9375 9.9375 32.4375 C6.10924378 28.46047734 0.38610741 27.73577159 -4.77539062 26.41992188 C-10.06123208 24.98340032 -14.04568152 23.22263028 -17.375 18.625 C-18.6880268 14.44718746 -18.60748062 10.8159804 -17 6.75 C-12.03183248 0.82025167 -7.48380752 0.07232787 0 0 Z " fill="#331557" transform="translate(140.0625,257.5625)"/>
<path d="M0 0 C12.54 0 25.08 0 38 0 C38 1.65 38 3.3 38 5 C32.72 5 27.44 5 22 5 C22 19.19 22 33.38 22 48 C20.02 48 18.04 48 16 48 C16 33.81 16 19.62 16 5 C10.72 5 5.44 5 0 5 C0 3.35 0 1.7 0 0 Z " fill="#361959" transform="translate(79,258)"/>
<path d="M0 0 C3.63 0 7.26 0 11 0 C11 0.66 11 1.32 11 2 C11.99 1.34 12.98 0.68 14 0 C17.5625 -0.25 17.5625 -0.25 21 0 C21.66 0.66 22.32 1.32 23 2 C23.53625 1.67 24.0725 1.34 24.625 1 C27.5391061 -0.22699204 29.86867708 -0.14233286 33 0 C33.495 1.485 33.495 1.485 34 3 C32.02 3 30.04 3 28 3 C28 3.66 28 4.32 28 5 C31.465 6.485 31.465 6.485 35 8 C34.125 12.875 34.125 12.875 33 14 C27.26388889 14.27314815 27.26388889 14.27314815 25 14 C24.34 13.34 23.68 12.68 23 12 C22.01 12.66 21.02 13.32 20 14 C16.4375 14.125 16.4375 14.125 13 14 C12.34 14 11.68 14 11 14 C7.33333333 14 3.66666667 14 0 14 C0 9.38 0 4.76 0 0 Z " fill="#E7E7E6" transform="translate(104,326)"/>
<path d="M0 0 C3.43796837 -0.08078777 6.87404727 -0.14039791 10.3125 -0.1875 C11.28896484 -0.21263672 12.26542969 -0.23777344 13.27148438 -0.26367188 C14.20927734 -0.27333984 15.14707031 -0.28300781 16.11328125 -0.29296875 C16.97735596 -0.3086792 17.84143066 -0.32438965 18.73168945 -0.34057617 C21.47620342 0.07149971 22.35769824 0.80099714 24 3 C24.0390625 4.9375 24.0390625 4.9375 23.625 7 C23.04003527 10.02805274 22.97807312 10.93421937 24 14 C23.01 14 22.02 14 21 14 C20.34 13.01 19.68 12.02 19 11 C16.94074861 10.27617533 16.94074861 10.27617533 15 10 C15 11.32 15 12.64 15 14 C10.05 14 5.1 14 0 14 C0 9.38 0 4.76 0 0 Z " fill="#E3E3E3" transform="translate(364,326)"/>
<path d="M0 0 C2.78111032 1.39055516 3.11002997 3.02390654 4.3828125 5.83984375 C5.04990234 7.3103418 5.04990234 7.3103418 5.73046875 8.81054688 C6.19066406 9.84244141 6.65085937 10.87433594 7.125 11.9375 C7.59292969 12.96552734 8.06085937 13.99355469 8.54296875 15.05273438 C12 22.7277469 12 22.7277469 12 25 C4.74 25 -2.52 25 -10 25 C-6.625 14.875 -6.625 14.875 -5.17578125 11.62109375 C-4.86962891 10.92822266 -4.56347656 10.23535156 -4.24804688 9.52148438 C-3.93931641 8.83376953 -3.63058594 8.14605469 -3.3125 7.4375 C-2.99216797 6.71498047 -2.67183594 5.99246094 -2.34179688 5.24804688 C-1.56487057 3.49706371 -0.78297505 1.74828676 0 0 Z " fill="#F1EFF3" transform="translate(55,264)"/>
<path d="M0 0 C3.96 0 7.92 0 12 0 C12 7.59 12 15.18 12 23 C17.61 23 23.22 23 29 23 C28.67 25.64 28.34 28.28 28 31 C27.67 30.01 27.34 29.02 27 28 C26.23816406 28.144375 25.47632813 28.28875 24.69140625 28.4375 C23.65886719 28.623125 22.62632812 28.80875 21.5625 29 C20.55316406 29.185625 19.54382813 29.37125 18.50390625 29.5625 C14.36552132 30.07922142 10.17051926 30 6 30 C6 20.43 6 10.86 6 1 C4.02 1 2.04 1 0 1 C0 0.67 0 0.34 0 0 Z " fill="#D2D0D6" transform="translate(226,107)"/>
<path d="M0 0 C3.63 0 7.26 0 11 0 C11 0.66 11 1.32 11 2 C11.804375 1.505 11.804375 1.505 12.625 1 C15.5391061 -0.22699204 17.86867708 -0.14233286 21 0 C21.33 0.99 21.66 1.98 22 3 C20.02 3 18.04 3 16 3 C16 3.66 16 4.32 16 5 C17.98 5.66 19.96 6.32 22 7 C22.625 9.375 22.625 9.375 23 12 C21 14 21 14 17.5625 14.125 C16.386875 14.08375 15.21125 14.0425 14 14 C13.01 14 12.02 14 11 14 C7.33333333 14 3.66666667 14 0 14 C0 9.38 0 4.76 0 0 Z " fill="#EBEAEA" transform="translate(224,326)"/>
<path d="M0 0 C12.24185013 -0.40357748 12.24185013 -0.40357748 17 3 C18.8503199 4.8503199 18.29140132 7.42472082 18.42578125 9.89453125 C17.78770278 13.04980001 16.59435259 14.13023385 14 16 C9.2805118 16.53387876 4.76525513 16.17649093 0 16 C0 10.72 0 5.44 0 0 Z " fill="#F6F5F8" transform="translate(277,267)"/>
<path d="M0 0 C3.63 0 7.26 0 11 0 C11.556875 1.670625 11.556875 1.670625 12.125 3.375 C13.4794021 6.61378762 13.76212803 6.89272441 17.1875 8.4375 C18.115625 8.623125 19.04375 8.80875 20 9 C19.67 9.99 19.34 10.98 19 12 C16.69 12 14.38 12 12 12 C11.67 12.66 11.34 13.32 11 14 C7.37 14 3.74 14 0 14 C0 9.38 0 4.76 0 0 Z " fill="#EEEEED" transform="translate(104,326)"/>
<path d="M0 0 C8.13448006 -0.35887412 8.13448006 -0.35887412 11.5625 1.0625 C13.8195184 4.10456828 13.51501365 6.33052778 13 10 C11.5625 12.4375 11.5625 12.4375 9 14 C5.91795892 14.32358779 3.11556103 14.1832683 0 14 C0 9.38 0 4.76 0 0 Z " fill="#434242" transform="translate(348,326)"/>
<path d="M0 0 C2.375 1.625 2.375 1.625 4 4 C4.60605429 7.63632575 4.47161336 9.28314769 2.4375 12.375 C-0.92058549 14.61372366 -3.04745604 14.57491549 -7 14 C-9.87915173 11.67810344 -9.98552483 10.11786923 -10.4375 6.4375 C-10 3 -10 3 -8.375 1.0625 C-5.29442492 -0.31565201 -3.34262452 -0.48746608 0 0 Z " fill="#434241" transform="translate(85,326)"/>
<path d="M0 0 C2.375 1.625 2.375 1.625 4 4 C4.60605429 7.63632575 4.47161336 9.28314769 2.4375 12.375 C-0.8994213 14.5996142 -3.06905293 14.50030235 -7 14 C-8.9375 13 -8.9375 13 -10 11 C-10.45982357 8.24105859 -10.51068558 5.75425931 -10 3 C-7.21052771 -0.43319666 -4.246332 -0.61925675 0 0 Z " fill="#4A4A4A" transform="translate(157,326)"/>
<path d="M0 0 C12.21 0 24.42 0 37 0 C37 2.97 37 5.94 37 9 C28.42 9 19.84 9 11 9 C11 8.67 11 8.34 11 8 C18.92 8 26.84 8 35 8 C35 6.02 35 4.04 35 2 C24.11 2 13.22 2 2 2 C1.67 16.85 1.34 31.7 1 47 C0.67 47 0.34 47 0 47 C0 31.49 0 15.98 0 0 Z " fill="#4B3367" transform="translate(367,258)"/>
<path d="M0 0 C6.8359375 -0.1953125 6.8359375 -0.1953125 9 0 C11 2 11 2 11.0625 4.3125 C11.041875 5.199375 11.02125 6.08625 11 7 C11.20625 7.886875 11.4125 8.77375 11.625 9.6875 C11.74875 10.450625 11.8725 11.21375 12 12 C10 14 10 14 7.6171875 14.1953125 C6.71226562 14.17210937 5.80734375 14.14890625 4.875 14.125 C2.461875 14.063125 2.461875 14.063125 0 14 C0 9.38 0 4.76 0 0 Z " fill="#3E3E3E" transform="translate(301,326)"/>
<path d="M0 0 C6.8359375 -0.1953125 6.8359375 -0.1953125 9 0 C11 2 11 2 11.1875 5 C11 8 11 8 10 10 C10.39938767 12.09821215 10.39938767 12.09821215 11 14 C10.01 13.67 9.02 13.34 8 13 C7.67 12.34 7.34 11.68 7 11 C4.97536745 10.34786708 4.97536745 10.34786708 3 10 C3 11.32 3 12.64 3 14 C2.01 14 1.02 14 0 14 C0 9.38 0 4.76 0 0 Z " fill="#5B5B5B" transform="translate(210,326)"/>
<path d="M0 0 C7.26325581 -0.3572093 7.26325581 -0.3572093 10.0625 1 C11.39238776 3.83709389 10.81009331 6.04186994 10.2265625 9.0625 C9.83597568 11.21504642 9.83597568 11.21504642 11 14 C10.01 14 9.02 14 8 14 C7.34 13.01 6.68 12.02 6 11 C3.94074861 10.27617533 3.94074861 10.27617533 2 10 C2 11.32 2 12.64 2 14 C1.34 14 0.68 14 0 14 C0 9.38 0 4.76 0 0 Z " fill="#4D4C4C" transform="translate(377,326)"/>
<path d="M0 0 C4.04005835 2.02002917 6.65441932 4.38973293 9.75 7.5625 C10.25660156 8.06974609 10.76320312 8.57699219 11.28515625 9.09960938 C15 12.85951188 15 12.85951188 15 14 C10.05 14 5.1 14 0 14 C0 9.38 0 4.76 0 0 Z " fill="#F8F7F9" transform="translate(244,110)"/>
<path d="M0 0 C7.37042925 -0.36248013 7.37042925 -0.36248013 10.0625 1.1875 C11.39826326 3.76997563 10.83707827 5.27949563 10 8 C9.67 8.66 9.34 9.32 9 10 C9.89163577 12.11683841 9.89163577 12.11683841 11 14 C9.0625 13.625 9.0625 13.625 7 13 C6.67 12.34 6.34 11.68 6 11 C3.97536745 10.34786708 3.97536745 10.34786708 2 10 C2 11.32 2 12.64 2 14 C1.34 14 0.68 14 0 14 C0 9.38 0 4.76 0 0 Z " fill="#4C4B4A" transform="translate(62,326)"/>
<path d="M0 0 C0.99 0 1.98 0 3 0 C3.9765625 1.79036458 4.953125 3.58072917 5.9296875 5.37109375 C6.91410024 7.16618315 6.91410024 7.16618315 9 8 C9.28875 7.236875 9.5775 6.47375 9.875 5.6875 C11 3 11 3 13 0 C13.66 0 14.32 0 15 0 C15 4.62 15 9.24 15 14 C14.34 14 13.68 14 13 14 C12.67 11.69 12.34 9.38 12 7 C10.515 9.475 10.515 9.475 9 12 C6 11 6 11 4 8 C3.67 9.98 3.34 11.96 3 14 C2.01 14 1.02 14 0 14 C0 9.38 0 4.76 0 0 Z " fill="#454545" transform="translate(264,326)"/>
<path d="M0 0 C1.258125 -0.04125 2.51625 -0.0825 3.8125 -0.125 C4.52019531 -0.14820313 5.22789063 -0.17140625 5.95703125 -0.1953125 C8 0 8 0 11 2 C11.375 5 11.375 5 11 8 C7.5647952 10.29013653 6.014669 10.17842973 2 10 C2 11.32 2 12.64 2 14 C1.34 14 0.68 14 0 14 C0 9.38 0 4.76 0 0 Z " fill="#404040" transform="translate(48,326)"/>
<path d="M0 0 C11.88 0 23.76 0 36 0 C36 2.97 36 5.94 36 9 C27.42 9 18.84 9 10 9 C10 8.67 10 8.34 10 8 C17.92 8 25.84 8 34 8 C34 6.02 34 4.04 34 2 C22.78 2 11.56 2 0 2 C0 1.34 0 0.68 0 0 Z " fill="#2F1452" transform="translate(166,258)"/>
<path d="M0 0 C0.99 0 1.98 0 3 0 C4.98 4.29 6.96 8.58 9 13 C8.01 13.33 7.02 13.66 6 14 C5.67 13.34 5.34 12.68 5 12 C2.69 12 0.38 12 -2 12 C-2.33 12.66 -2.66 13.32 -3 14 C-3.99 13.67 -4.98 13.34 -6 13 C-4.02 8.71 -2.04 4.42 0 0 Z " fill="#40403F" transform="translate(183,326)"/>
<path d="M0 0 C1.32 0 2.64 0 4 0 C4.09796875 0.61488281 4.1959375 1.22976563 4.296875 1.86328125 C5.11584876 6.84028051 5.11584876 6.84028051 7.8125 10.9375 C10.17306787 12.08406154 12.53137329 13.10855147 15 14 C11.51944558 15.16018481 8.68295529 15.87300154 5 16 C2.321652 13.84567661 0.53745581 12.07491161 -1 9 C-1.23333333 2.46666667 -1.23333333 2.46666667 0 0 Z " fill="#2D0D52" transform="translate(123,265)"/>
<path d="M0 0 C4.38635744 2.19317872 5.51256905 3.91350629 8 8 C8.33 5.36 8.66 2.72 9 0 C9.99 0 10.98 0 12 0 C12 4.62 12 9.24 12 14 C7.77000325 12.94250081 7.45069644 12.79967512 5.25 9.4375 C4.82203125 8.79683594 4.3940625 8.15617187 3.953125 7.49609375 C3.63859375 7.00238281 3.3240625 6.50867188 3 6 C2.67 8.64 2.34 11.28 2 14 C1.34 14 0.68 14 0 14 C0 9.38 0 4.76 0 0 Z " fill="#505151" transform="translate(164,326)"/>
<path d="M0 0 C0.99 0 1.98 0 3 0 C3.33 3.63 3.66 7.26 4 11 C5.32 11 6.64 11 8 11 C8.33 7.37 8.66 3.74 9 0 C9.99 0 10.98 0 12 0 C12.08114106 1.77007714 12.13925505 3.54122098 12.1875 5.3125 C12.22230469 6.29863281 12.25710938 7.28476562 12.29296875 8.30078125 C12 11 12 11 10.67578125 12.83203125 C8.07386354 14.64548905 6.07797388 14.38474673 3 14 C1.32421875 12.83203125 1.32421875 12.83203125 0 11 C-0.29296875 8.30078125 -0.29296875 8.30078125 -0.1875 5.3125 C-0.16042969 4.31863281 -0.13335937 3.32476562 -0.10546875 2.30078125 C-0.07066406 1.54152344 -0.03585938 0.78226562 0 0 Z " fill="#545554" transform="translate(249,326)"/>
<path d="M0 0 C3.3 0 6.6 0 10 0 C10 0.66 10 1.32 10 2 C7.69 2 5.38 2 3 2 C3 3.32 3 4.64 3 6 C4.98 6 6.96 6 9 6 C9 6.66 9 7.32 9 8 C7.02 8 5.04 8 3 8 C3 9.32 3 10.64 3 12 C5.31 12 7.62 12 10 12 C10 12.66 10 13.32 10 14 C6.7 14 3.4 14 0 14 C0 9.38 0 4.76 0 0 Z " fill="#464646" transform="translate(224,326)"/>
<path d="M0 0 C3.3 0 6.6 0 10 0 C10 0.66 10 1.32 10 2 C7.69 2 5.38 2 3 2 C3 3.32 3 4.64 3 6 C4.98 6 6.96 6 9 6 C9 6.66 9 7.32 9 8 C7.02 8 5.04 8 3 8 C3 9.32 3 10.64 3 12 C5.31 12 7.62 12 10 12 C10 12.66 10 13.32 10 14 C6.7 14 3.4 14 0 14 C0 9.38 0 4.76 0 0 Z " fill="#444444" transform="translate(104,326)"/>
<path d="M0 0 C0.33 0.99 0.66 1.98 1 3 C-0.98 3 -2.96 3 -5 3 C-5 3.66 -5 4.32 -5 5 C-3.02 5.66 -1.04 6.32 1 7 C1.625 9.375 1.625 9.375 2 12 C0 14 0 14 -3.5 14.1875 C-7 14 -7 14 -9 13 C-9 12.34 -9 11.68 -9 11 C-6.36 11.33 -3.72 11.66 -1 12 C-1 11.01 -1 10.02 -1 9 C-3.31 8.34 -5.62 7.68 -8 7 C-8.33 5.35 -8.66 3.7 -9 2 C-5.5647952 -0.29013653 -4.014669 -0.17842973 0 0 Z " fill="#4B4B4A" transform="translate(245,326)"/>
<path d="M0 0 C2.54232342 -0.08152344 5.08199202 -0.14073716 7.625 -0.1875 C8.33785156 -0.21263672 9.05070313 -0.23777344 9.78515625 -0.26367188 C14.5803943 -0.32966139 17.87621636 0.2783028 22 3 C22.33 3.99 22.66 4.98 23 6 C22.67 6.66 22.34 7.32 22 8 C19.23723823 7.47731534 16.6739124 6.89130413 14 6 C12.10787263 5.77820215 10.21115528 5.59385985 8.3125 5.4375 C7.31863281 5.35371094 6.32476562 5.26992188 5.30078125 5.18359375 C4.16189453 5.09271484 4.16189453 5.09271484 3 5 C3 4.67 3 4.34 3 4 C5.64 3.67 8.28 3.34 11 3 C11 2.34 11 1.68 11 1 C7.37 1 3.74 1 0 1 C0 0.67 0 0.34 0 0 Z " fill="#452A64" transform="translate(132,258)"/>
<path d="M0 0 C0.99 0 1.98 0 3 0 C3.33 3.63 3.66 7.26 4 11 C5.65 10.67 7.3 10.34 9 10 C9.33 6.7 9.66 3.4 10 0 C10.66 0 11.32 0 12 0 C12.08114106 1.77007714 12.13925505 3.54122098 12.1875 5.3125 C12.22230469 6.29863281 12.25710938 7.28476562 12.29296875 8.30078125 C12 11 12 11 10.67578125 12.83203125 C8.07386354 14.64548905 6.07797388 14.38474673 3 14 C1.32421875 12.83203125 1.32421875 12.83203125 0 11 C-0.29296875 8.30078125 -0.29296875 8.30078125 -0.1875 5.3125 C-0.16042969 4.31863281 -0.13335937 3.32476562 -0.10546875 2.30078125 C-0.07066406 1.54152344 -0.03585937 0.78226562 0 0 Z " fill="#4A4A4A" transform="translate(315,326)"/>
<path d="M0 0 C1.670625 0.061875 1.670625 0.061875 3.375 0.125 C3.705 1.115 4.035 2.105 4.375 3.125 C2.395 3.125 0.415 3.125 -1.625 3.125 C-1.625 3.785 -1.625 4.445 -1.625 5.125 C0.355 5.785 2.335 6.445 4.375 7.125 C4.375 9.105 4.375 11.085 4.375 13.125 C1.41835481 14.6033226 -1.36729737 14.18532783 -4.625 14.125 C-4.955 13.135 -5.285 12.145 -5.625 11.125 C-3.315 11.125 -1.005 11.125 1.375 11.125 C1.705 10.465 2.035 9.805 2.375 9.125 C0.065 8.465 -2.245 7.805 -4.625 7.125 C-5.25 4.75 -5.25 4.75 -5.625 2.125 C-3.625 0.125 -3.625 0.125 0 0 Z " fill="#4F4E4D" transform="translate(121.625,325.875)"/>
<path d="M0 0 C3.29714793 0.32971479 4.6226839 0.6226839 7 3 C6.67028521 6.29714793 6.3773161 7.6226839 4 10 C0.70285207 9.67028521 -0.6226839 9.3773161 -3 7 C-2.67028521 3.70285207 -2.3773161 2.3773161 0 0 Z " fill="#EFEEEE" transform="translate(80,328)"/>
<path d="M0 0 C3.3 0 6.6 0 10 0 C10 0.66 10 1.32 10 2 C7.36 2 4.72 2 2 2 C2 3.32 2 4.64 2 6 C4.31 6 6.62 6 9 6 C9 6.66 9 7.32 9 8 C6.69 8 4.38 8 2 8 C2 9.32 2 10.64 2 12 C4.64 12 7.28 12 10 12 C10 12.66 10 13.32 10 14 C6.7 14 3.4 14 0 14 C0 9.38 0 4.76 0 0 Z " fill="#3C3C3C" transform="translate(283,326)"/>
<path d="M0 0 C3.3 0 6.6 0 10 0 C10 0.66 10 1.32 10 2 C7.36 2 4.72 2 2 2 C2 3.32 2 4.64 2 6 C4.31 6 6.62 6 9 6 C9 6.66 9 7.32 9 8 C6.69 8 4.38 8 2 8 C2 9.32 2 10.64 2 12 C4.64 12 7.28 12 10 12 C10 12.66 10 13.32 10 14 C6.7 14 3.4 14 0 14 C0 9.38 0 4.76 0 0 Z " fill="#3C3C3C" transform="translate(364,326)"/>
<path d="M0 0 C4.55555556 0.55555556 4.55555556 0.55555556 6 2 C6.1875 4.9375 6.1875 4.9375 6 8 C4 10 4 10 1.5 10.3125 C0.2625 10.1578125 0.2625 10.1578125 -1 10 C-3 7 -3 7 -2.75 4.4375 C-2 2 -2 2 0 0 Z " fill="#F0F0EF" transform="translate(152,328)"/>
<path d="M0 0 C0.94875 0.04125 1.8975 0.0825 2.875 0.125 C3.205 1.115 3.535 2.105 3.875 3.125 C1.895 3.125 -0.085 3.125 -2.125 3.125 C-2.125 3.785 -2.125 4.445 -2.125 5.125 C1.34 6.61 1.34 6.61 4.875 8.125 C4 13 4 13 2.875 14.125 C0.20441149 14.26615161 -2.44932238 14.16747107 -5.125 14.125 C-5.455 13.135 -5.785 12.145 -6.125 11.125 C-3.485 11.455 -0.845 11.785 1.875 12.125 C1.545 11.135 1.215 10.145 0.875 9.125 C-2.13347418 7.89979736 -2.13347418 7.89979736 -5.125 7.125 C-5.25 4.75 -5.25 4.75 -5.125 2.125 C-3.125 0.125 -3.125 0.125 0 0 Z " fill="#404040" transform="translate(134.125,325.875)"/>
<path d="M0 0 C0.66 0.33 1.32 0.66 2 1 C1.27683594 2.01320313 1.27683594 2.01320313 0.5390625 3.046875 C-0.09257812 3.93890625 -0.72421875 4.8309375 -1.375 5.75 C-2.00148437 6.63171875 -2.62796875 7.5134375 -3.2734375 8.421875 C-4.71480941 10.57414979 -5.91498093 12.65460523 -7 15 C-7.66 15 -8.32 15 -9 15 C-9.66 14.01 -10.32 13.02 -11 12 C-11.99 11.67 -12.98 11.34 -14 11 C-14 10.34 -14 9.68 -14 9 C-13.24074219 8.60167969 -12.48148438 8.20335937 -11.69921875 7.79296875 C-10.70535156 7.26316406 -9.71148437 6.73335937 -8.6875 6.1875 C-7.70136719 5.66542969 -6.71523437 5.14335938 -5.69921875 4.60546875 C-3.38334932 3.2280124 -1.76388999 2.00469409 0 0 Z " fill="#BFA36A" transform="translate(251,29)"/>
<path d="M0 0 C3.39479312 1.61656815 6.56152337 3.50931089 9.75 5.5 C10.73484375 6.1084375 11.7196875 6.716875 12.734375 7.34375 C13.48203125 7.8903125 14.2296875 8.436875 15 9 C15 9.66 15 10.32 15 11 C14.01 11.66 13.02 12.32 12 13 C11.01 14.485 11.01 14.485 10 16 C8.51960151 13.70912072 7.04063324 11.41734017 5.5625 9.125 C5.14162109 8.47402344 4.72074219 7.82304688 4.28710938 7.15234375 C1.11328125 2.2265625 1.11328125 2.2265625 0 0 Z " fill="#BFA063" transform="translate(183,29)"/>
<path d="M0 0 C0.66 0 1.32 0 2 0 C1.42732628 4.10416164 0.5731146 7.0672135 -1 11 C6.26 11 13.52 11 21 11 C21 11.33 21 11.66 21 12 C17.22956968 12.14496508 13.45985258 12.23395607 9.6875 12.3125 C8.0797168 12.3753418 8.0797168 12.3753418 6.43945312 12.43945312 C5.41142578 12.45556641 4.38339844 12.47167969 3.32421875 12.48828125 C2.37635498 12.51446533 1.42849121 12.54064941 0.4519043 12.56762695 C-2 12 -2 12 -3.89526367 9.65698242 C-5 7 -5 7 -4 4 C-3.34 4 -2.68 4 -2 4 C-1.34 2.68 -0.68 1.36 0 0 Z " fill="#25074C" transform="translate(46,278)"/>
<path d="M0 0 C3.3 0 6.6 0 10 0 C10 0.66 10 1.32 10 2 C7.36 2 4.72 2 2 2 C2 3.65 2 5.3 2 7 C4.31 7 6.62 7 9 7 C9 7.66 9 8.32 9 9 C7.02 9 5.04 9 3 9 C3 10.65 3 12.3 3 14 C2.01 14 1.02 14 0 14 C0 9.38 0 4.76 0 0 Z " fill="#4F4F4F" transform="translate(92,326)"/>
<path d="M0 0 C2.875 -0.125 2.875 -0.125 6 0 C6.66 0.66 7.32 1.32 8 2 C7.67028521 5.29714793 7.3773161 6.6226839 5 9 C2.375 9.125 2.375 9.125 0 9 C0 6.03 0 3.06 0 0 Z " fill="#F6F6F6" transform="translate(351,329)"/>
<path d="M0 0 C0.33 0 0.66 0 1 0 C1 4.62 1 9.24 1 14 C0.67 14 0.34 14 0 14 C-0.144375 13.21625 -0.28875 12.4325 -0.4375 11.625 C-0.87798925 9.03578982 -0.87798925 9.03578982 -2 7 C-4.31 7 -6.62 7 -9 7 C-9 5.35 -9 3.7 -9 2 C-6.03 2 -3.06 2 0 2 C0 1.34 0 0.68 0 0 Z " fill="#E1E1E1" transform="translate(103,326)"/>
<path d="M0 0 C0.99 0 1.98 0 3 0 C3 3.96 3 7.92 3 12 C5.31 12 7.62 12 10 12 C10 12.66 10 13.32 10 14 C6.7 14 3.4 14 0 14 C0 9.38 0 4.76 0 0 Z " fill="#535353" transform="translate(193,326)"/>
<path d="M0 0 C1.47906892 -0.02689216 2.95827483 -0.04634621 4.4375 -0.0625 C5.26121094 -0.07410156 6.08492187 -0.08570313 6.93359375 -0.09765625 C9 0 9 0 10 1 C10.23529412 6.52941176 10.23529412 6.52941176 9 9 C9.39938767 11.09821215 9.39938767 11.09821215 10 13 C9.01 12.67 8.02 12.34 7 12 C6.67 11.34 6.34 10.68 6 10 C3.98330173 8.86649466 3.98330173 8.86649466 2 8 C3.65 7.34 5.3 6.68 7 6 C7 4.68 7 3.36 7 2 C4.03 1.505 4.03 1.505 1 1 C1 2.98 1 4.96 1 7 C0.67 7 0.34 7 0 7 C0 4.69 0 2.38 0 0 Z " fill="#393938" transform="translate(211,327)"/>
<path d="M0 0 C0.36923077 6.52307692 0.36923077 6.52307692 -1.5 8.9375 C-1.995 9.288125 -2.49 9.63875 -3 10 C-3.66 9.34 -4.32 8.68 -5 8 C-4.34 7.34 -3.68 6.68 -3 6 C-3.32041397 3.39719432 -3.32041397 3.39719432 -4 1 C-6.97 0.505 -6.97 0.505 -10 0 C-10 2.97 -10 5.94 -10 9 C-10.33 9 -10.66 9 -11 9 C-11 5.7 -11 2.4 -11 -1 C-3.57142857 -2.42857143 -3.57142857 -2.42857143 0 0 Z " fill="#5F5E5E" transform="translate(361,329)"/>
<path d="M0 0 C0.79921875 0.01804687 1.5984375 0.03609375 2.421875 0.0546875 C3.02515625 0.07789063 3.6284375 0.10109375 4.25 0.125 C3.92 1.775 3.59 3.425 3.25 5.125 C1.62419034 5.01101335 -0.00067157 4.88344341 -1.625 4.75 C-2.52992188 4.68039062 -3.43484375 4.61078125 -4.3671875 4.5390625 C-6.75 4.125 -6.75 4.125 -8.75 2.125 C-5.68753253 0.34090198 -3.52920727 -0.10380021 0 0 Z " fill="#3A1B5C" transform="translate(137.75,278.875)"/>
<path d="M0 0 C2.64 0 5.28 0 8 0 C8 0.66 8 1.32 8 2 C6.02 2 4.04 2 2 2 C2 3.98 2 5.96 2 8 C3.65 8 5.3 8 7 8 C7 8.33 7 8.66 7 9 C5.35 9 3.7 9 2 9 C2 10.65 2 12.3 2 14 C1.34 14 0.68 14 0 14 C0 9.38 0 4.76 0 0 Z " fill="#383837" transform="translate(62,326)"/>
<path d="M0 0 C2.64 0 5.28 0 8 0 C8 0.66 8 1.32 8 2 C6.02 2 4.04 2 2 2 C2 3.98 2 5.96 2 8 C3.32 8.33 4.64 8.66 6 9 C4.68 9 3.36 9 2 9 C2 10.65 2 12.3 2 14 C1.34 14 0.68 14 0 14 C0 9.38 0 4.76 0 0 Z " fill="#383737" transform="translate(377,326)"/>
<path d="M0 0 C0.66 0 1.32 0 2 0 C2 3.96 2 7.92 2 12 C4.31 12 6.62 12 9 12 C9 12.66 9 13.32 9 14 C6.03 14 3.06 14 0 14 C0 9.38 0 4.76 0 0 Z " fill="#353535" transform="translate(337,326)"/>
<path d="M0 0 C0.99 0 1.98 0 3 0 C3 4.62 3 9.24 3 14 C2.01 14 1.02 14 0 14 C0 9.38 0 4.76 0 0 Z " fill="#545454" transform="translate(141,326)"/>
<path d="M0 0 C0.99 0 1.98 0 3 0 C3.06058594 0.77085937 3.12117187 1.54171875 3.18359375 2.3359375 C3.26738281 3.33882813 3.35117188 4.34171875 3.4375 5.375 C3.55931641 6.87160156 3.55931641 6.87160156 3.68359375 8.3984375 C3.84965626 10.97927613 3.84965626 10.97927613 5 13 C1.125 12.125 1.125 12.125 0 11 C-0.07226502 9.14712498 -0.0838122 7.29166122 -0.0625 5.4375 C-0.05347656 4.42558594 -0.04445312 3.41367187 -0.03515625 2.37109375 C-0.02355469 1.58863281 -0.01195312 0.80617188 0 0 Z " fill="#4F4F4E" transform="translate(249,326)"/>
<path d="M0 0 C0.99 0 1.98 0 3 0 C2.979375 0.94875 2.95875 1.8975 2.9375 2.875 C2.77448174 5.90666283 2.77448174 5.90666283 4 8 C7.02934491 8.65772428 7.02934491 8.65772428 10 9 C10 9.66 10 10.32 10 11 C3.69181722 11.35706695 3.69181722 11.35706695 1.0625 10 C-0.67278693 6.73357754 -0.17982715 3.65648548 0 0 Z " fill="#3F3F3F" transform="translate(147,329)"/>
<path d="M0 0 C0.33 1.32 0.66 2.64 1 4 C3.31 4 5.62 4 8 4 C8 3.34 8 2.68 8 2 C8.66 2 9.32 2 10 2 C10.66 3.98 11.32 5.96 12 8 C11.01 8 10.02 8 9 8 C8.67 7.34 8.34 6.68 8 6 C5.69 6 3.38 6 1 6 C0.67 6.66 0.34 7.32 0 8 C-0.99 7.67 -1.98 7.34 -3 7 C-2.01 4.69 -1.02 2.38 0 0 Z " fill="#545453" transform="translate(180,332)"/>
<path d="M0 0 C1.98 0.99 1.98 0.99 4 2 C4.33 2.99 4.66 3.98 5 5 C4.01 5.495 4.01 5.495 3 6 C2.53476937 7.89533342 2.53476937 7.89533342 2.375 10.0625 C2.25125 11.361875 2.1275 12.66125 2 14 C1.34 14 0.68 14 0 14 C0 9.38 0 4.76 0 0 Z " fill="#3A3A3A" transform="translate(164,326)"/>
<path d="M0 0 C3.63 0 7.26 0 11 0 C11 0.66 11 1.32 11 2 C11.66 2.33 12.32 2.66 13 3 C6.565 3.495 6.565 3.495 0 4 C0 2.68 0 1.36 0 0 Z " fill="#25034F" transform="translate(132,259)"/>
<path d="M0 0 C1.65 0 3.3 0 5 0 C5.66 1.32 6.32 2.64 7 4 C5 6 5 6 2.375 6.125 C1.59125 6.08375 0.8075 6.0425 0 6 C0 4.02 0 2.04 0 0 Z " fill="#DCDCDC" transform="translate(50,328)"/>
<path d="M0 0 C0.99 0 1.98 0 3 0 C3.33 1.65 3.66 3.3 4 5 C3.34 5 2.68 5 2 5 C2 7.97 2 10.94 2 14 C1.34 14 0.68 14 0 14 C0 9.38 0 4.76 0 0 Z " fill="#4F4F4F" transform="translate(264,326)"/>
<path d="M0 0 C0.99 0.33 1.98 0.66 3 1 C2.125 5.875 2.125 5.875 1 7 C-1.67058851 7.14115161 -4.32432238 7.04247107 -7 7 C-7.33 6.01 -7.66 5.02 -8 4 C-5.36 4.33 -2.72 4.66 0 5 C-0.2784375 4.0409375 -0.2784375 4.0409375 -0.5625 3.0625 C-0.706875 2.381875 -0.85125 1.70125 -1 1 C-0.67 0.67 -0.34 0.34 0 0 Z " fill="#4D4C4C" transform="translate(136,333)"/>
<path d="M0 0 C1.65 0 3.3 0 5 0 C5.38218767 1.65614657 5.71395102 3.32457024 6 5 C5 6 5 6 2.4375 6.0625 C1.2309375 6.0315625 1.2309375 6.0315625 0 6 C0 4.02 0 2.04 0 0 Z " fill="#DEDEDE" transform="translate(379,328)"/>
<path d="M0 0 C1.65 0 3.3 0 5 0 C5.38218767 1.65614657 5.71395102 3.32457024 6 5 C5 6 5 6 2.4375 6.0625 C1.2309375 6.0315625 1.2309375 6.0315625 0 6 C0 4.02 0 2.04 0 0 Z " fill="#E1E1E0" transform="translate(213,328)"/>
<path d="M0 0 C1.65 0 3.3 0 5 0 C5.38218767 1.65614657 5.71395102 3.32457024 6 5 C5 6 5 6 2.4375 6.0625 C1.2309375 6.0315625 1.2309375 6.0315625 0 6 C0 4.02 0 2.04 0 0 Z " fill="#DFDEDE" transform="translate(64,328)"/>
<path d="M0 0 C0.33 0 0.66 0 1 0 C1 1.98 1 3.96 1 6 C3.64 6 6.28 6 9 6 C8.67 6.66 8.34 7.32 8 8 C6.02 8 4.04 8 2 8 C2 9.32 2 10.64 2 12 C1.34 12 0.68 12 0 12 C0 8.04 0 4.08 0 0 Z " fill="#3F3F3F" transform="translate(48,328)"/>
<path d="M0 0 C1.485 0.99 1.485 0.99 3 2 C5.63434254 1.67873872 7.62710097 1.18644952 10 0 C10.33 0.99 10.66 1.98 11 3 C7.3558226 5.4294516 5.28758728 5.16179575 1 5 C0.67 3.35 0.34 1.7 0 0 Z " fill="#4C4C4A" transform="translate(77,335)"/>
<path d="M0 0 C2.31 0 4.62 0 7 0 C7 1.32 7 2.64 7 4 C4.69 4 2.38 4 0 4 C0 2.68 0 1.36 0 0 Z " fill="#E4E4E4" transform="translate(303,334)"/>
<path d="M0 0 C0.66 0 1.32 0 2 0 C2.05391993 1.79133978 2.09275571 3.58313899 2.125 5.375 C2.14820313 6.37273437 2.17140625 7.37046875 2.1953125 8.3984375 C2 11 2 11 0 13 C-0.66 12.34 -1.32 11.68 -2 11 C-1.67 10.67 -1.34 10.34 -1 10 C-0.76712992 8.31816052 -0.58735834 6.6287584 -0.4375 4.9375 C-0.35371094 4.01839844 -0.26992188 3.09929687 -0.18359375 2.15234375 C-0.12300781 1.44207031 -0.06242187 0.73179687 0 0 Z " fill="#3C3C3C" transform="translate(325,326)"/>
<path d="M0 0 C1.98 0 3.96 0 6 0 C6 1.32 6 2.64 6 4 C4.02 4 2.04 4 0 4 C0 2.68 0 1.36 0 0 Z " fill="#DBDBDB" transform="translate(303,328)"/>
<path d="M0 0 C1.32 0.99 2.64 1.98 4 3 C3.67 4.65 3.34 6.3 3 8 C2.34 7.67 1.68 7.34 1 7 C1 5.68 1 4.36 1 3 C-1.31 3 -3.62 3 -6 3 C-6 2.67 -6 2.34 -6 2 C-4.02 2 -2.04 2 0 2 C0 1.34 0 0.68 0 0 Z " fill="#4D4D4D" transform="translate(309,331)"/>
<path d="M0 0 C5.94 0.99 5.94 0.99 12 2 C12 2.33 12 2.66 12 3 C8.04 3 4.08 3 0 3 C0 2.01 0 1.02 0 0 Z " fill="#270451" transform="translate(132,301)"/>
<path d="M0 0 C1.65 0 3.3 0 5 0 C5.33 0.99 5.66 1.98 6 3 C5.67 3.66 5.34 4.32 5 5 C3.35 4.67 1.7 4.34 0 4 C0 2.68 0 1.36 0 0 Z " fill="#361756" transform="translate(149,261)"/>
<path d="M0 0 C3.3 0 6.6 0 10 0 C10 0.66 10 1.32 10 2 C7.36 2 4.72 2 2 2 C1.67 3.32 1.34 4.64 1 6 C0.67 4.02 0.34 2.04 0 0 Z " fill="#3F3F3F" transform="translate(92,326)"/>
<path d="M0 0 C0.33 0 0.66 0 1 0 C1 1.65 1 3.3 1 5 C-1.95664519 6.4783226 -4.74229737 6.06032783 -8 6 C-8.33 5.01 -8.66 4.02 -9 3 C-6.03 3.33 -3.06 3.66 0 4 C0 2.68 0 1.36 0 0 Z " fill="#42403F" transform="translate(125,334)"/>
<path d="M0 0 C0.33 0 0.66 0 1 0 C1 2.97 1 5.94 1 9 C0.01 9.495 0.01 9.495 -1 10 C-2.125 7.1875 -2.125 7.1875 -3 4 C-1 1 -1 1 0 0 Z " fill="#F5F5F5" transform="translate(314,328)"/>
<path d="M0 0 C0.99 0.33 1.98 0.66 3 1 C3 2.98 3 4.96 3 7 C2.01 7.495 2.01 7.495 1 8 C0.34 7.34 -0.32 6.68 -1 6 C-1 2 -1 2 0 0 Z " fill="#4C4B4B" transform="translate(56,327)"/>
<path d="M0 0 C3 3.75 3 3.75 3 6 C1.35 6 -0.3 6 -2 6 C-1.34 4.02 -0.68 2.04 0 0 Z " fill="#D1D1D1" transform="translate(184,329)"/>
<path d="M0 0 C0 3 0 3 -1.3125 4.38671875 C-2.875 5.59114583 -4.4375 6.79557292 -6 8 C-5.65120368 4.74456771 -4.97866739 3.98126893 -2.4375 1.75 C-1.633125 1.1725 -0.82875 0.595 0 0 Z " fill="#2F1451" transform="translate(176,179)"/>
<path d="M0 0 C3.43595166 1.52708963 6.11912454 3.59927045 9 6 C6.75 6.375 6.75 6.375 4 6 C1.6875 3 1.6875 3 0 0 Z " fill="#C0A874" transform="translate(183,29)"/>
<path d="M0 0 C2.15377564 2.62198774 3.40072174 4.64404172 4 8 C2.02 6.35 0.04 4.7 -2 3 C-1.34 2.67 -0.68 2.34 0 2 C0 1.34 0 0.68 0 0 Z " fill="#C6A978" transform="translate(265,116)"/>
<path d="M0 0 C0 3 0 3 -1.3125 4.38671875 C-2.875 5.59114583 -4.4375 6.79557292 -6 8 C-4.73058503 4.08597051 -3.48832306 2.20927127 0 0 Z " fill="#BFA166" transform="translate(238,74)"/>
</svg>
